<svg id="googletranslate" xmlns="http://www.w3.org/2000/svg" viewBox="0 0 24 24"><defs><style>.cls-1{fill:none;}</style></defs><path d="M21,4H11L10,1H3A2,2,0,0,0,1,3V18a2,2,0,0,0,2,2h8l1,3h9a2,2,0,0,0,2-2V6A2,2,0,0,0,21,4ZM7,16A5,5,0,0,1,7,6a4.9,4.9,0,0,1,3.4,1.3L9,8.6a2.7,2.7,0,0,0-2-.8,3.2,3.2,0,0,0,0,6.4,2.7,2.7,0,0,0,2.9-2.4H7V10.1h4.7a3.1,3.1,0,0,1,.1,1A4.6,4.6,0,0,1,7,16Zm6.2-5.4h3.7A10.1,10.1,0,0,1,14.8,14a4.4,4.4,0,0,1-.8-1.1Zm8.3,9.9a1.1,1.1,0,0,1-1,1H14L16,19l-1-3.1L18.1,19l.9-.9-3.3-3.3h0a11.8,11.8,0,0,0,2.4-4.2H20V9.3H15.5V8H14.2V9.3H12.7L11.5,5.5h9a1,1,0,0,1,1,1Z"/><path class="cls-1" d="M0,0H24V24H0ZM0,0H24V24H0Z"/></svg>